<svg id="Camada_1" data-name="Camada 1" xmlns="http://www.w3.org/2000/svg" xmlns:xlink="http://www.w3.org/1999/xlink" viewBox="0 0 877.32 640.4"><defs><style>.cls-1{opacity:0.5;isolation:isolate;fill:url(#Gradiente_sem_nome);}.cls-2{fill:#34cb79;}.cls-10,.cls-3,.cls-7{fill:none;}.cls-10,.cls-3{stroke:#040006;}.cls-3,.cls-6,.cls-7{stroke-miterlimit:10;stroke-width:1.55px;}.cls-4{fill:#63c;}.cls-5{fill:#c96b59;}.cls-6{fill:#553f8c;}.cls-6,.cls-7{stroke:#553f8c;}.cls-8{fill:#040006;}.cls-9{fill:#b45649;}.cls-10{stroke-linecap:round;stroke-linejoin:round;stroke-width:1.24px;}</style><linearGradient id="Gradiente_sem_nome" x1="242.46" y1="379.46" x2="740.96" y2="-119.04" gradientTransform="matrix(1, 0, 0, -1, 0, 660)" gradientUnits="userSpaceOnUse"><stop offset="0" stop-color="#fff"/><stop offset="1" stop-color="#fff" stop-opacity="0"/></linearGradient></defs><title>page-error</title><path class="cls-1" d="M868.08,660H1.27C-9.71,512.2,136,419.06,215.18,368.46c10.29-6.57,19.45-12.43,27-17.59,33.09-22.64,57.62-72.07,83.72-124.64C374,129.37,427.34,21.85,549.23,51.59,656.39,77.8,817.45,189.33,878,356.18V633.3Q873.49,646.55,868.08,660Z" transform="translate(-0.68 -19.6)"/><path class="cls-2" d="M679.09,343.6l-1.12-15-94,4.62v14.55s-21.15,20.12-29.49,154H723.69S742.35,383.15,679.09,343.6Z" transform="translate(-0.68 -19.6)"/><line class="cls-3" x1="583.26" y1="328.11" x2="678.4" y2="324"/><polyline class="cls-3" points="602.72 389.8 622.19 397.75 632.62 482.06"/><path class="cls-4" d="M481.17,314.36l26-85.73,57.14,21.5-27.41,82.11a29.25,29.25,0,1,1-55.7-17.88Z" transform="translate(-0.68 -19.6)"/><path class="cls-4" d="M521.24,182.94a31,31,0,0,1,59.36,17.87q-.15.5-.31,1l-16,48.34-57.14-21.5Z" transform="translate(-0.68 -19.6)"/><path class="cls-5" d="M525.24,308,460,184.32s1.48-22.36-35.64-23.65H410.5a4.71,4.71,0,0,0-4.73,3.91,4.6,4.6,0,0,0,3.89,5.21h.08l12.51,1.76-17,4.54L402,177.29,378.85,162a3.76,3.76,0,1,0-4.6,6c1.44,1.2,3.74,3.16,6.26,5.33l-5.12-3.07a3.76,3.76,0,0,0-4.11,6.3l4.58,3.22-1.78-.69a4.6,4.6,0,0,0-5.46,1.5,4.43,4.43,0,0,0,1.91,6.6l25.34,10.6a20.94,20.94,0,0,0,13.69,1.76L432.16,194l50.56,141.49Z" transform="translate(-0.68 -19.6)"/><path class="cls-4" d="M572,161.36l-24.25,1.81s-35.12,47.63,36.18,170l93.89-4.6L685,196.72l-11.61-37.42h-42Z" transform="translate(-0.68 -19.6)"/><path class="cls-6" d="M544.59,242.72s-7-14.72-2.49-47.29" transform="translate(-0.68 -19.6)"/><path class="cls-4" d="M762.73,297.17l-39-80.63-53.07,30.09,39.9,76.83a29.23,29.23,0,0,0,52.21-26.29Z" transform="translate(-0.68 -19.6)"/><path class="cls-4" d="M702.62,173.59a31,31,0,0,0-55.37,27.94l23.37,45.25,53.07-30.09Z" transform="translate(-0.68 -19.6)"/><line class="cls-7" x1="669.91" y1="227.1" x2="650.63" y2="189.74"/><path class="cls-5" d="M844.22,159.32a4.6,4.6,0,0,0-5.46-1.5l-11.35,4.43,10.75-9a4.54,4.54,0,0,0,.92-6,4.43,4.43,0,0,0-6.16-1.14l-.29.22-9.91,8,8.45-11a4.54,4.54,0,0,0-.39-6.08,4.43,4.43,0,0,0-6.26.25l-.19.22-16.68,17.3-17-4.54,12.51-1.76a4.6,4.6,0,0,0,4-5.14v-.08a4.71,4.71,0,0,0-4.73-3.91H790a29.79,29.79,0,0,0-19.91,7.44l-.26.19c-7.61,6-4.84,18.31-4.84,18.31L718.23,297.81l46.34,20.55,26.72-142.17h17.07a18.1,18.1,0,0,0,3.18,0h.13a18.1,18.1,0,0,0,5.37-1.31l25.34-9a4.43,4.43,0,0,0,1.83-6.6Z" transform="translate(-0.68 -19.6)"/><path class="cls-8" d="M570.14,52.12c-2.92,2-22.53,7.09-22.91,10.75,0,0,6.45,25.21-.15,29.9-17.86,12.73-23.65,37.66-23.65,37.66s47.1,35.27,172.31-1.76c0,0,1.5-15-21.28-25.79a35.81,35.81,0,0,1-15.95-14.21,27.49,27.49,0,0,1-4-11.44C652.52,64.76,618.4,19.06,570.14,52.12Z" transform="translate(-0.68 -19.6)"/><circle class="cls-9" cx="557" cy="90.98" r="15" transform="translate(-5.65 19.28) rotate(-3.98)"/><path class="cls-5" d="M578.79,126.71l2.15,32.65c.71,11.48,5.4,19.35,16.68,18.49h0c9.63-.67,21.09-8.38,21.62-18l-5.87-51.2Z" transform="translate(-0.68 -19.6)"/><path class="cls-5" d="M572,161.36l59.29-2.15s-1.44,29.15-36.67,26.42C570.14,183.82,572,161.36,572,161.36Z" transform="translate(-0.68 -19.6)"/><polygon class="cls-9" points="579.8 134.02 617.7 96.96 577.82 103.78 579.8 134.02"/><path class="cls-5" d="M588.72,132h0c-19.35,0-35.23-15-35.81-30.89l-1.14-37.19a36.54,36.54,0,0,1,34-37.88h0C606,24.64,627,39.61,628.42,59.79l.58,29.9C629.49,112.84,611.8,130.38,588.72,132Z" transform="translate(-0.68 -19.6)"/><polyline class="cls-10" points="572.47 68.42 571.35 77.64 576.13 77.83"/><path class="cls-8" d="M592.2,65.49s-10.75-.88-10.75,3.46c0,0,0,2.94,9.31,3.53s11.72,0,12.58-2.86S597.21,65.51,592.2,65.49Z" transform="translate(-0.68 -19.6)"/><path class="cls-8" d="M561.31,71.83s8.08-.64,8.83,3.25c0,0,.45,2.64-6.62,3.05s-9.26-.47-9.39-2.71C554,72.75,557.48,71.78,561.31,71.83Z" transform="translate(-0.68 -19.6)"/><circle class="cls-8" cx="562.57" cy="84.66" r="3.42" transform="translate(-3.15 -1.19) rotate(-1.87)"/><circle class="cls-8" cx="591.22" cy="83.72" r="3.42" transform="translate(-3.1 -0.26) rotate(-1.87)"/><path class="cls-10" d="M584.65,103.83s-5.05-2.3-11.13,2.94" transform="translate(-0.68 -19.6)"/><path class="cls-8" d="M597.79,19.66a46.24,46.24,0,0,0-14.32,1.5C571.91,24.24,551.23,32.79,547.62,55c-1.18,5.85-.37,7.8-.37,7.8s38.69,1.53,61.67-9.29c3.29,14,6.45,22.59,20.14,36.2l12.25-18.4L655.1,83.67C655.16,84.14,655.14,22.71,597.79,19.66Z" transform="translate(-0.68 -19.6)"/><circle class="cls-5" cx="634.19" cy="91.12" r="15" transform="translate(-5.48 24.64) rotate(-3.98)"/><path class="cls-10" d="M628.42,95.41s-.75-10.86,9.74-9.87" transform="translate(-0.68 -19.6)"/></svg>