<svg id="Camada_1" data-name="Camada 1" xmlns="http://www.w3.org/2000/svg" xmlns:xlink="http://www.w3.org/1999/xlink" viewBox="0 0 500 349.62"><defs><style>.cls-1{opacity:0.5;isolation:isolate;fill:url(#Gradiente_sem_nome_2);}.cls-2{fill:#34cb79;}.cls-3,.cls-9{fill:none;stroke:#040006;}.cls-3,.cls-6{stroke-miterlimit:10;stroke-width:1.55px;}.cls-4{fill:#63c;}.cls-5{fill:#c96b59;}.cls-6{fill:#553f8c;stroke:#553f8c;}.cls-7{fill:#040006;}.cls-8{fill:#b45649;}.cls-9{stroke-linecap:round;stroke-linejoin:round;stroke-width:1.24px;}</style><linearGradient id="Gradiente_sem_nome_2" x1="137.79" y1="367.45" x2="421.9" y2="83.35" gradientTransform="matrix(1, 0, 0, -1, 0, 502)" gradientUnits="userSpaceOnUse"><stop offset="0" stop-color="#fff"/><stop offset="1" stop-color="#fff" stop-opacity="0"/></linearGradient></defs><title>page-error</title><path class="cls-1" d="M494.34,350.81H.33c-6.25-84.24,76.79-137.31,121.91-166.15,5.86-3.75,11.08-7.08,15.38-10,18.86-12.9,32.84-41.07,47.71-71,27.4-55.2,57.81-116.48,127.28-99.53C373.7,19,465.49,82.57,500,177.66V335.59Q497.43,343.14,494.34,350.81Z" transform="translate(0 -1.19)"/><path class="cls-2" d="M422.57,214.6l-.52-7-43.73,2.15v6.77s-9.84,9.36-13.72,71.62h78.72S452,233,422.57,214.6Z" transform="translate(0 -1.19)"/><line class="cls-3" x1="378.31" y1="215.32" x2="422.57" y2="213.41"/><polyline class="cls-3" points="387.36 244.02 396.42 247.72 401.27 286.94"/><path class="cls-4" d="M330.5,201l12.08-39.88,26.58,10-12.75,38.2A13.6,13.6,0,0,1,330.5,201Z" transform="translate(0 -1.19)"/><path class="cls-4" d="M349.14,139.86a14.42,14.42,0,1,1,27.47,8.77l-7.45,22.49-26.58-10Z" transform="translate(0 -1.19)"/><path class="cls-5" d="M351,198.05,320.67,140.5s.69-10.4-16.58-11v0c-.23,0-.47,0-.7,0h-5.77a2.19,2.19,0,0,0-2.2,1.82,2.14,2.14,0,0,0,1.85,2.43l5.82.82-7.92,2.11-1.48.55-10.79-7.13a1.75,1.75,0,0,0-2.14,2.77c.67.56,1.74,1.47,2.91,2.48l-2.38-1.43a1.75,1.75,0,0,0-1.91,2.93l2.13,1.5-.83-.32a2.14,2.14,0,0,0-2.54.7,2.06,2.06,0,0,0,.89,3.07l11.79,4.93a9.74,9.74,0,0,0,6.37.82L307.7,145l23.52,65.82Z" transform="translate(0 -1.19)"/><path class="cls-4" d="M372.77,129.82l-11.28.84s-16.34,22.16,16.83,79.07L422,207.59l3.3-61.32-5.4-17.41H400.35Z" transform="translate(0 -1.19)"/><path class="cls-6" d="M360,167.67s-3.25-6.85-1.16-22" transform="translate(0 -1.19)"/><path class="cls-4" d="M461.48,193l-18.16-37.51-24.69,14,18.56,35.74A13.6,13.6,0,0,0,461.48,193Z" transform="translate(0 -1.19)"/><path class="cls-4" d="M433.52,135.51a14.42,14.42,0,1,0-25.76,13l10.87,21.05,24.69-14Z" transform="translate(0 -1.19)"/><line class="cls-6" x1="418.62" y1="168.33" x2="409.65" y2="150.95"/><path class="cls-5" d="M499.39,128.87a2.14,2.14,0,0,0-2.54-.7l-5.28,2.06,5-4.19a2.11,2.11,0,0,0,.43-2.8,2.06,2.06,0,0,0-3-.43l-4.61,3.71,3.93-5.14a2.11,2.11,0,0,0-.18-2.83,2.06,2.06,0,0,0-3,.22l-7.76,8.05-7.92-2.11,5.82-.82a2.14,2.14,0,0,0,1.85-2.43,2.19,2.19,0,0,0-2.2-1.82h-5.77a13.86,13.86,0,0,0-9.26,3.46l-.12.09c-3.54,2.79-2.25,8.52-2.25,8.52l-21.75,61.59,21.56,9.56,12.43-66.14h7.94a8.42,8.42,0,0,0,1.48,0h.06a8.42,8.42,0,0,0,2.5-.61l11.79-4.17A2.06,2.06,0,0,0,499.39,128.87Z" transform="translate(0 -1.19)"/><path class="cls-7" d="M371.89,79c-1.36.93-10.48,3.3-10.66,5,0,0,3,11.73-.07,13.91-8.31,5.92-11,17.52-11,17.52s21.91,16.41,80.16-.82c0,0,.7-7-9.9-12A16.66,16.66,0,0,1,413,96a12.79,12.79,0,0,1-1.86-5.32C410.21,84.88,394.34,63.62,371.89,79Z" transform="translate(0 -1.19)"/><circle class="cls-8" cx="365.78" cy="97.08" r="6.98" transform="translate(-5.86 24.43) rotate(-3.98)"/><path class="cls-5" d="M375.91,113.7l1,15.19c.33,5.34,2.51,9,7.76,8.6h0c4.48-.31,9.81-3.9,10.06-8.39L392,105.28Z" transform="translate(0 -1.19)"/><path class="cls-5" d="M372.77,129.82l27.58-1s-.67,13.56-17.06,12.29C371.89,140.27,372.77,129.82,372.77,129.82Z" transform="translate(0 -1.19)"/><polygon class="cls-8" points="376.7 125.03 394.33 107.79 375.78 110.96 376.7 125.03"/><path class="cls-5" d="M380.53,116.16h0c-9,0-16.39-7-16.66-14.37l-.53-17.3a17,17,0,0,1,15.84-17.62h0c9.39-.65,19.17,6.31,19.82,15.7l.27,13.91C399.5,107.25,391.27,115.41,380.53,116.16Z" transform="translate(0 -1.19)"/><polyline class="cls-9" points="373.29 94.51 372.77 98.8 374.99 98.89"/><path class="cls-7" d="M382.15,85.22s-5-.41-5,1.61c0,0,0,1.37,4.33,1.64s5.45,0,5.85-1.33S384.48,85.23,382.15,85.22Z" transform="translate(0 -1.19)"/><path class="cls-7" d="M367.78,88.17s3.76-.3,4.11,1.51c0,0,.21,1.23-3.08,1.42s-4.31-.22-4.37-1.26C364.37,88.6,366,88.15,367.78,88.17Z" transform="translate(0 -1.19)"/><circle class="cls-7" cx="368.37" cy="94.11" r="1.59" transform="translate(-2.88 10.91) rotate(-1.87)"/><circle class="cls-7" cx="381.7" cy="93.68" r="1.59" transform="translate(-2.86 11.34) rotate(-1.87)"/><path class="cls-9" d="M378.64,103.06s-2.35-1.07-5.18,1.37" transform="translate(0 -1.19)"/><path class="cls-7" d="M384.75,63.9a21.51,21.51,0,0,0-6.66.7c-5.38,1.43-15,5.41-16.68,15.74-.55,2.72-.17,3.63-.17,3.63s18,.71,28.69-4.32c1.53,6.49,3,10.51,9.37,16.84l5.7-8.56,6.41,5.75C411.44,93.9,411.43,65.32,384.75,63.9Z" transform="translate(0 -1.19)"/><circle class="cls-5" cx="401.68" cy="97.15" r="6.98" transform="translate(-5.77 26.92) rotate(-3.98)"/><path class="cls-9" d="M399,99.14s-.35-5.05,4.53-4.59" transform="translate(0 -1.19)"/></svg>